<svg width="375" height="289" viewBox="0 0 375 289" fill="none" xmlns="http://www.w3.org/2000/svg">
<rect width="375" height="289" rx="8" fill="url(#paint0_linear)"/>
<path d="M122.26 256.845C122.26 255.932 121.938 255.233 121.293 254.75C120.649 254.256 119.489 253.74 117.813 253.203C116.137 252.655 114.811 252.118 113.833 251.592C111.169 250.152 109.837 248.213 109.837 245.775C109.837 244.507 110.191 243.379 110.9 242.391C111.62 241.392 112.646 240.613 113.978 240.055C115.321 239.496 116.825 239.217 118.49 239.217C120.166 239.217 121.659 239.523 122.969 240.135C124.28 240.737 125.295 241.591 126.015 242.697C126.745 243.804 127.11 245.061 127.11 246.468H122.276C122.276 245.394 121.938 244.561 121.261 243.97C120.584 243.369 119.634 243.068 118.409 243.068C117.228 243.068 116.309 243.32 115.654 243.825C114.999 244.319 114.671 244.975 114.671 245.791C114.671 246.554 115.052 247.193 115.815 247.708C116.588 248.224 117.722 248.708 119.215 249.159C121.965 249.986 123.968 251.012 125.225 252.236C126.482 253.461 127.11 254.986 127.11 256.812C127.11 258.843 126.342 260.438 124.806 261.598C123.27 262.748 121.202 263.322 118.603 263.322C116.798 263.322 115.154 262.995 113.672 262.339C112.189 261.673 111.056 260.766 110.272 259.616C109.499 258.467 109.112 257.135 109.112 255.62H113.962C113.962 258.209 115.509 259.503 118.603 259.503C119.752 259.503 120.649 259.272 121.293 258.811C121.938 258.338 122.26 257.683 122.26 256.845ZM134.635 247.467C135.871 245.984 137.423 245.243 139.292 245.243C143.073 245.243 144.991 247.44 145.044 251.833V263H140.388V251.962C140.388 250.963 140.173 250.228 139.743 249.755C139.313 249.271 138.599 249.03 137.6 249.03C136.236 249.03 135.248 249.556 134.635 250.609V263H129.979V238.25H134.635V247.467ZM147.832 254.122C147.832 252.392 148.165 250.851 148.831 249.497C149.497 248.144 150.453 247.096 151.699 246.355C152.956 245.614 154.412 245.243 156.066 245.243C158.418 245.243 160.336 245.963 161.818 247.402C163.312 248.842 164.144 250.797 164.316 253.268L164.348 254.46C164.348 257.135 163.602 259.283 162.108 260.905C160.615 262.517 158.612 263.322 156.098 263.322C153.584 263.322 151.576 262.517 150.072 260.905C148.579 259.294 147.832 257.103 147.832 254.331V254.122ZM152.489 254.46C152.489 256.114 152.8 257.382 153.423 258.263C154.046 259.133 154.938 259.568 156.098 259.568C157.226 259.568 158.107 259.138 158.741 258.279C159.375 257.409 159.691 256.023 159.691 254.122C159.691 252.5 159.375 251.243 158.741 250.351C158.107 249.459 157.215 249.014 156.066 249.014C154.927 249.014 154.046 249.459 153.423 250.351C152.8 251.232 152.489 252.602 152.489 254.46ZM177.013 249.932C176.379 249.846 175.821 249.803 175.337 249.803C173.576 249.803 172.421 250.399 171.873 251.592V263H167.216V245.565H171.615L171.744 247.644C172.679 246.043 173.973 245.243 175.627 245.243C176.143 245.243 176.626 245.313 177.078 245.453L177.013 249.932ZM185.65 241.279V245.565H188.631V248.981H185.65V257.683C185.65 258.327 185.773 258.789 186.021 259.068C186.268 259.348 186.74 259.487 187.438 259.487C187.954 259.487 188.411 259.45 188.808 259.375V262.903C187.895 263.183 186.955 263.322 185.988 263.322C182.723 263.322 181.058 261.673 180.993 258.375V248.981H178.447V245.565H180.993V241.279H185.65ZM199.25 263.322C196.693 263.322 194.609 262.538 192.998 260.97C191.397 259.401 190.597 257.312 190.597 254.702V254.25C190.597 252.5 190.935 250.937 191.612 249.562C192.289 248.176 193.245 247.112 194.48 246.371C195.726 245.619 197.144 245.243 198.734 245.243C201.119 245.243 202.993 245.995 204.357 247.499C205.732 249.003 206.42 251.135 206.42 253.896V255.797H195.318C195.468 256.936 195.919 257.849 196.671 258.537C197.434 259.224 198.396 259.568 199.556 259.568C201.35 259.568 202.751 258.918 203.761 257.618L206.049 260.18C205.351 261.168 204.406 261.942 203.213 262.5C202.021 263.048 200.7 263.322 199.25 263.322ZM198.718 249.014C197.794 249.014 197.042 249.325 196.462 249.948C195.893 250.571 195.527 251.463 195.366 252.623H201.844V252.252C201.822 251.221 201.543 250.426 201.006 249.868C200.469 249.298 199.706 249.014 198.718 249.014ZM213.365 245.565L213.51 247.58C214.756 246.022 216.426 245.243 218.521 245.243C220.369 245.243 221.744 245.786 222.646 246.871C223.548 247.956 224.01 249.578 224.032 251.737V263H219.375V251.85C219.375 250.861 219.16 250.147 218.73 249.707C218.301 249.255 217.586 249.03 216.587 249.03C215.277 249.03 214.294 249.588 213.639 250.706V263H208.982V245.565H213.365ZM253.857 239.539V254.992C253.857 257.559 253.052 259.589 251.44 261.083C249.84 262.576 247.648 263.322 244.866 263.322C242.127 263.322 239.952 262.597 238.34 261.147C236.729 259.697 235.907 257.704 235.875 255.169V239.539H240.709V255.024C240.709 256.56 241.074 257.683 241.805 258.392C242.546 259.09 243.566 259.439 244.866 259.439C247.584 259.439 248.964 258.01 249.007 255.153V239.539H253.857ZM267.312 249.932C266.678 249.846 266.12 249.803 265.636 249.803C263.875 249.803 262.72 250.399 262.172 251.592V263H257.515V245.565H261.914L262.043 247.644C262.978 246.043 264.272 245.243 265.926 245.243C266.442 245.243 266.925 245.313 267.376 245.453L267.312 249.932ZM274.482 263H269.81V238.25H274.482V263Z" fill="white"/>
<path d="M123.929 177.292L173.614 165.371L159.095 214.361L123.929 177.292Z" fill="white"/>
<rect x="98" y="35.8066" width="169" height="155" rx="22" transform="rotate(-3.66624 98 35.8066)" fill="white"/>
<path d="M178.533 112.12C180.412 114.632 182.809 116.71 185.561 118.214C188.314 119.718 191.358 120.612 194.487 120.836C197.616 121.06 200.756 120.609 203.695 119.512C206.634 118.416 209.303 116.701 211.52 114.482L224.645 101.357C228.63 97.2315 230.835 91.7058 230.785 85.9703C230.735 80.2347 228.435 74.7482 224.379 70.6924C220.323 66.6366 214.836 64.336 209.101 64.2862C203.365 64.2364 197.84 66.4412 193.714 70.4259L186.189 77.9072" stroke="#132742" stroke-width="5" stroke-linecap="round" stroke-linejoin="round"/>
<path d="M196.033 103.37C194.154 100.858 191.757 98.7795 189.004 97.2756C186.251 95.7716 183.207 94.8773 180.079 94.6532C176.95 94.4292 173.81 94.8806 170.871 95.9769C167.932 97.0732 165.263 98.7888 163.045 101.007L149.92 114.132C145.936 118.258 143.731 123.784 143.781 129.519C143.83 135.255 146.131 140.741 150.187 144.797C154.243 148.853 159.729 151.153 165.465 151.203C171.2 151.253 176.726 149.048 180.852 145.063L188.333 137.582" stroke="#132742" stroke-width="5" stroke-linecap="round" stroke-linejoin="round"/>
<defs>
<linearGradient id="paint0_linear" x1="187.5" y1="0" x2="187.5" y2="289" gradientUnits="userSpaceOnUse">
<stop stop-color="#1DDBB9"/>
<stop offset="1" stop-color="#132742"/>
</linearGradient>
</defs>
</svg>
